<mxfile host="65bd71144e">
    <diagram id="eybspIIHA_364XizBxSg" name="Page-1">
        <mxGraphModel dx="1031" dy="450" grid="0" gridSize="10" guides="1" tooltips="1" connect="1" arrows="1" fold="1" page="0" pageScale="1" pageWidth="827" pageHeight="1169" math="0" shadow="0">
            <root>
                <mxCell id="0"/>
                <mxCell id="1" parent="0"/>
                <mxCell id="72" value="" style="rounded=0;whiteSpace=wrap;html=1;fillColor=#2E2E2E;" vertex="1" parent="1">
                    <mxGeometry x="776" y="143" width="794" height="789" as="geometry"/>
                </mxCell>
                <mxCell id="70" value="" style="rounded=0;whiteSpace=wrap;html=1;fillColor=#2E2E2E;" vertex="1" parent="1">
                    <mxGeometry x="-17" y="141" width="705" height="600" as="geometry"/>
                </mxCell>
                <mxCell id="22" style="edgeStyle=none;html=1;entryX=0.5;entryY=0;entryDx=0;entryDy=0;" edge="1" parent="1" source="3" target="11">
                    <mxGeometry relative="1" as="geometry"/>
                </mxCell>
                <mxCell id="23" style="edgeStyle=none;html=1;exitX=0.5;exitY=1;exitDx=0;exitDy=0;entryX=0.5;entryY=0;entryDx=0;entryDy=0;" edge="1" parent="1" source="3" target="16">
                    <mxGeometry relative="1" as="geometry">
                        <mxPoint x="462" y="484" as="targetPoint"/>
                    </mxGeometry>
                </mxCell>
                <mxCell id="30" style="edgeStyle=none;html=1;entryX=0;entryY=0.5;entryDx=0;entryDy=0;exitX=0;exitY=0.5;exitDx=0;exitDy=0;" edge="1" parent="1" source="3" target="26">
                    <mxGeometry relative="1" as="geometry">
                        <Array as="points">
                            <mxPoint x="20" y="270"/>
                            <mxPoint x="20" y="929"/>
                        </Array>
                    </mxGeometry>
                </mxCell>
                <mxCell id="3" value="Web UI" style="swimlane;" vertex="1" parent="1">
                    <mxGeometry x="120" y="200" width="200" height="140" as="geometry"/>
                </mxCell>
                <mxCell id="5" value="Web UI Specific code" style="text;html=1;align=center;verticalAlign=middle;resizable=0;points=[];autosize=1;strokeColor=none;fillColor=none;" vertex="1" parent="3">
                    <mxGeometry x="30" y="40" width="140" height="30" as="geometry"/>
                </mxCell>
                <mxCell id="6" value="Blazor Web Assembly" style="text;html=1;align=center;verticalAlign=middle;resizable=0;points=[];autosize=1;strokeColor=none;fillColor=none;" vertex="1" parent="3">
                    <mxGeometry x="30" y="95" width="140" height="30" as="geometry"/>
                </mxCell>
                <mxCell id="25" style="edgeStyle=none;html=1;" edge="1" parent="1" source="7" target="16">
                    <mxGeometry relative="1" as="geometry"/>
                </mxCell>
                <mxCell id="7" value="Native UI" style="swimlane;" vertex="1" parent="1">
                    <mxGeometry x="360" y="200" width="200" height="140" as="geometry"/>
                </mxCell>
                <mxCell id="8" value="Native Specific code" style="text;html=1;align=center;verticalAlign=middle;resizable=0;points=[];autosize=1;strokeColor=none;fillColor=none;" vertex="1" parent="7">
                    <mxGeometry x="35" y="40" width="130" height="30" as="geometry"/>
                </mxCell>
                <mxCell id="9" value=".Net Maui Hybrid App" style="text;html=1;align=center;verticalAlign=middle;resizable=0;points=[];autosize=1;strokeColor=none;fillColor=none;" vertex="1" parent="7">
                    <mxGeometry x="30" y="95" width="140" height="30" as="geometry"/>
                </mxCell>
                <mxCell id="11" value="View Library" style="swimlane;" vertex="1" parent="1">
                    <mxGeometry x="120" y="489" width="200" height="179" as="geometry"/>
                </mxCell>
                <mxCell id="12" value="Razor Pages" style="text;html=1;align=center;verticalAlign=middle;resizable=0;points=[];autosize=1;strokeColor=none;fillColor=none;" vertex="1" parent="11">
                    <mxGeometry x="56.5" y="39" width="87" height="26" as="geometry"/>
                </mxCell>
                <mxCell id="13" value="Code Behind / View Models" style="text;html=1;align=center;verticalAlign=middle;resizable=0;points=[];autosize=1;strokeColor=none;fillColor=none;" vertex="1" parent="11">
                    <mxGeometry x="20" y="99" width="165" height="26" as="geometry"/>
                </mxCell>
                <mxCell id="14" value="CSS" style="text;html=1;align=center;verticalAlign=middle;resizable=0;points=[];autosize=1;strokeColor=none;fillColor=none;" vertex="1" parent="11">
                    <mxGeometry x="78.5" y="129" width="43" height="26" as="geometry"/>
                </mxCell>
                <mxCell id="15" value="Compontents" style="text;html=1;align=center;verticalAlign=middle;resizable=0;points=[];autosize=1;strokeColor=none;fillColor=none;" vertex="1" parent="11">
                    <mxGeometry x="56.5" y="69" width="89" height="26" as="geometry"/>
                </mxCell>
                <mxCell id="16" value="UI Infastructure" style="swimlane;" vertex="1" parent="1">
                    <mxGeometry x="360" y="489" width="208" height="151" as="geometry"/>
                </mxCell>
                <mxCell id="19" value="HTTP Interceptor" style="text;html=1;align=center;verticalAlign=middle;resizable=0;points=[];autosize=1;strokeColor=none;fillColor=none;" vertex="1" parent="16">
                    <mxGeometry x="49" y="35" width="110" height="26" as="geometry"/>
                </mxCell>
                <mxCell id="20" value="Validation" style="text;html=1;align=center;verticalAlign=middle;resizable=0;points=[];autosize=1;strokeColor=none;fillColor=none;" vertex="1" parent="16">
                    <mxGeometry x="69" y="70" width="70" height="26" as="geometry"/>
                </mxCell>
                <mxCell id="24" style="edgeStyle=none;html=1;entryX=0.5;entryY=0;entryDx=0;entryDy=0;exitX=0.5;exitY=1;exitDx=0;exitDy=0;" edge="1" parent="1" source="7" target="11">
                    <mxGeometry relative="1" as="geometry"/>
                </mxCell>
                <mxCell id="26" value="Domain Library" style="swimlane;" vertex="1" parent="1">
                    <mxGeometry x="276" y="844" width="200" height="167" as="geometry"/>
                </mxCell>
                <mxCell id="27" value="Domain Entities" style="text;html=1;align=center;verticalAlign=middle;resizable=0;points=[];autosize=1;strokeColor=none;fillColor=none;" vertex="1" parent="26">
                    <mxGeometry x="49" y="40" width="102" height="26" as="geometry"/>
                </mxCell>
                <mxCell id="28" value="Domain Events" style="text;html=1;align=center;verticalAlign=middle;resizable=0;points=[];autosize=1;strokeColor=none;fillColor=none;" vertex="1" parent="26">
                    <mxGeometry x="50.5" y="75" width="99" height="26" as="geometry"/>
                </mxCell>
                <mxCell id="29" value="Shared Members" style="text;html=1;align=center;verticalAlign=middle;resizable=0;points=[];autosize=1;strokeColor=none;fillColor=none;" vertex="1" parent="26">
                    <mxGeometry x="45" y="115" width="110" height="26" as="geometry"/>
                </mxCell>
                <mxCell id="45" style="edgeStyle=none;html=1;" edge="1" parent="1" source="35" target="40">
                    <mxGeometry relative="1" as="geometry"/>
                </mxCell>
                <mxCell id="55" style="edgeStyle=none;html=1;exitX=1;exitY=0.25;exitDx=0;exitDy=0;entryX=0;entryY=0.5;entryDx=0;entryDy=0;" edge="1" parent="1" source="35" target="52">
                    <mxGeometry relative="1" as="geometry"/>
                </mxCell>
                <mxCell id="63" style="edgeStyle=none;html=1;entryX=0.5;entryY=0;entryDx=0;entryDy=0;exitX=0.5;exitY=1;exitDx=0;exitDy=0;" edge="1" parent="1" source="35" target="47">
                    <mxGeometry relative="1" as="geometry">
                        <Array as="points">
                            <mxPoint x="924" y="414"/>
                            <mxPoint x="1409" y="415"/>
                        </Array>
                    </mxGeometry>
                </mxCell>
                <mxCell id="69" style="edgeStyle=none;html=1;entryX=1;entryY=0.5;entryDx=0;entryDy=0;exitX=0;exitY=0.5;exitDx=0;exitDy=0;" edge="1" parent="1" source="35" target="26">
                    <mxGeometry relative="1" as="geometry">
                        <Array as="points">
                            <mxPoint x="724" y="295"/>
                            <mxPoint x="724" y="929"/>
                        </Array>
                    </mxGeometry>
                </mxCell>
                <mxCell id="35" value="Web API" style="swimlane;" vertex="1" parent="1">
                    <mxGeometry x="824" y="200" width="200" height="190" as="geometry"/>
                </mxCell>
                <mxCell id="36" value="HTTP Rest Endpoints" style="text;html=1;align=center;verticalAlign=middle;resizable=0;points=[];autosize=1;strokeColor=none;fillColor=none;" vertex="1" parent="35">
                    <mxGeometry x="33" y="40" width="134" height="26" as="geometry"/>
                </mxCell>
                <mxCell id="37" value="Middleware" style="text;html=1;align=center;verticalAlign=middle;resizable=0;points=[];autosize=1;strokeColor=none;fillColor=none;" vertex="1" parent="35">
                    <mxGeometry x="60.5" y="73" width="79" height="26" as="geometry"/>
                </mxCell>
                <mxCell id="38" value="Authentication" style="text;html=1;align=center;verticalAlign=middle;resizable=0;points=[];autosize=1;strokeColor=none;fillColor=none;" vertex="1" parent="35">
                    <mxGeometry x="53" y="109" width="94" height="26" as="geometry"/>
                </mxCell>
                <mxCell id="39" value="Authorization" style="text;html=1;align=center;verticalAlign=middle;resizable=0;points=[];autosize=1;strokeColor=none;fillColor=none;" vertex="1" parent="35">
                    <mxGeometry x="56" y="145" width="88" height="26" as="geometry"/>
                </mxCell>
                <mxCell id="40" value="Application" style="swimlane;" vertex="1" parent="1">
                    <mxGeometry x="824" y="455" width="200" height="177" as="geometry"/>
                </mxCell>
                <mxCell id="41" value="Business Logic" style="text;html=1;align=center;verticalAlign=middle;resizable=0;points=[];autosize=1;strokeColor=none;fillColor=none;" vertex="1" parent="40">
                    <mxGeometry x="50.5" y="38" width="99" height="26" as="geometry"/>
                </mxCell>
                <mxCell id="42" value="Validation" style="text;html=1;align=center;verticalAlign=middle;resizable=0;points=[];autosize=1;strokeColor=none;fillColor=none;" vertex="1" parent="40">
                    <mxGeometry x="65" y="72" width="70" height="26" as="geometry"/>
                </mxCell>
                <mxCell id="43" value="Behavior Driven Development" style="text;html=1;align=center;verticalAlign=middle;resizable=0;points=[];autosize=1;strokeColor=none;fillColor=none;" vertex="1" parent="40">
                    <mxGeometry x="11.5" y="138" width="177" height="26" as="geometry"/>
                </mxCell>
                <mxCell id="57" style="edgeStyle=none;html=1;exitX=0;exitY=0.5;exitDx=0;exitDy=0;entryX=1;entryY=0.5;entryDx=0;entryDy=0;" edge="1" parent="1" source="47" target="40">
                    <mxGeometry relative="1" as="geometry">
                        <mxPoint x="1034" y="546" as="targetPoint"/>
                    </mxGeometry>
                </mxCell>
                <mxCell id="67" style="edgeStyle=none;html=1;entryX=0.5;entryY=0;entryDx=0;entryDy=0;exitX=0.5;exitY=1;exitDx=0;exitDy=0;" edge="1" parent="1" source="47" target="64">
                    <mxGeometry relative="1" as="geometry">
                        <Array as="points">
                            <mxPoint x="1408" y="694"/>
                            <mxPoint x="1376" y="694"/>
                        </Array>
                    </mxGeometry>
                </mxCell>
                <mxCell id="68" style="edgeStyle=none;html=1;entryX=0.5;entryY=0;entryDx=0;entryDy=0;exitX=0.5;exitY=1;exitDx=0;exitDy=0;" edge="1" parent="1" source="47" target="60">
                    <mxGeometry relative="1" as="geometry">
                        <Array as="points">
                            <mxPoint x="1408" y="694"/>
                            <mxPoint x="986" y="694"/>
                        </Array>
                    </mxGeometry>
                </mxCell>
                <mxCell id="47" value="Infastructure" style="swimlane;" vertex="1" parent="1">
                    <mxGeometry x="1308" y="443.5" width="200" height="200" as="geometry"/>
                </mxCell>
                <mxCell id="48" value="Services" style="text;html=1;align=center;verticalAlign=middle;resizable=0;points=[];autosize=1;strokeColor=none;fillColor=none;" vertex="1" parent="47">
                    <mxGeometry x="68" y="43" width="64" height="26" as="geometry"/>
                </mxCell>
                <mxCell id="49" value="Helpers" style="text;html=1;align=center;verticalAlign=middle;resizable=0;points=[];autosize=1;strokeColor=none;fillColor=none;" vertex="1" parent="47">
                    <mxGeometry x="70.5" y="74" width="59" height="26" as="geometry"/>
                </mxCell>
                <mxCell id="50" value="Persistence" style="text;html=1;align=center;verticalAlign=middle;resizable=0;points=[];autosize=1;strokeColor=none;fillColor=none;" vertex="1" parent="47">
                    <mxGeometry x="59.5" y="109" width="81" height="26" as="geometry"/>
                </mxCell>
                <mxCell id="51" value="Messaging" style="text;html=1;align=center;verticalAlign=middle;resizable=0;points=[];autosize=1;strokeColor=none;fillColor=none;" vertex="1" parent="47">
                    <mxGeometry x="62" y="151" width="76" height="26" as="geometry"/>
                </mxCell>
                <mxCell id="52" value="Request Cache" style="swimlane;" vertex="1" parent="1">
                    <mxGeometry x="1302" y="194" width="200" height="108" as="geometry"/>
                </mxCell>
                <mxCell id="53" value="Cache System" style="text;html=1;align=center;verticalAlign=middle;resizable=0;points=[];autosize=1;strokeColor=none;fillColor=none;" vertex="1" parent="52">
                    <mxGeometry x="52" y="39" width="96" height="26" as="geometry"/>
                </mxCell>
                <mxCell id="54" value="Reddis?" style="text;html=1;align=center;verticalAlign=middle;resizable=0;points=[];autosize=1;strokeColor=none;fillColor=none;" vertex="1" parent="52">
                    <mxGeometry x="69" y="72" width="62" height="26" as="geometry"/>
                </mxCell>
                <mxCell id="60" value="Message Queue" style="swimlane;" vertex="1" parent="1">
                    <mxGeometry x="886" y="750" width="200" height="108" as="geometry"/>
                </mxCell>
                <mxCell id="61" value="RabbitMQ" style="text;html=1;align=center;verticalAlign=middle;resizable=0;points=[];autosize=1;strokeColor=none;fillColor=none;" vertex="1" parent="60">
                    <mxGeometry x="64" y="35" width="72" height="26" as="geometry"/>
                </mxCell>
                <mxCell id="62" value="Kafka" style="text;html=1;align=center;verticalAlign=middle;resizable=0;points=[];autosize=1;strokeColor=none;fillColor=none;" vertex="1" parent="60">
                    <mxGeometry x="75.5" y="66" width="49" height="26" as="geometry"/>
                </mxCell>
                <mxCell id="64" value="Persistence" style="swimlane;" vertex="1" parent="1">
                    <mxGeometry x="1276" y="750" width="200" height="108" as="geometry"/>
                </mxCell>
                <mxCell id="65" value="Elasticsearch ?" style="text;html=1;align=center;verticalAlign=middle;resizable=0;points=[];autosize=1;strokeColor=none;fillColor=none;" vertex="1" parent="64">
                    <mxGeometry x="51" y="35" width="99" height="26" as="geometry"/>
                </mxCell>
                <mxCell id="66" value="PostgreSQL" style="text;html=1;align=center;verticalAlign=middle;resizable=0;points=[];autosize=1;strokeColor=none;fillColor=none;" vertex="1" parent="64">
                    <mxGeometry x="58.5" y="66" width="83" height="26" as="geometry"/>
                </mxCell>
                <mxCell id="71" value="UI / Frontend" style="text;html=1;strokeColor=none;fillColor=none;align=center;verticalAlign=middle;whiteSpace=wrap;rounded=0;" vertex="1" parent="1">
                    <mxGeometry x="2" y="150" width="89" height="30" as="geometry"/>
                </mxCell>
                <mxCell id="73" value="Backend" style="text;html=1;strokeColor=none;fillColor=none;align=center;verticalAlign=middle;whiteSpace=wrap;rounded=0;" vertex="1" parent="1">
                    <mxGeometry x="793" y="150" width="60" height="30" as="geometry"/>
                </mxCell>
            </root>
        </mxGraphModel>
    </diagram>
</mxfile>